<?xml version="1.0" encoding="utf-8"?>
<!-- Generator: Adobe Illustrator 16.0.0, SVG Export Plug-In . SVG Version: 6.00 Build 0)  -->
<!DOCTYPE svg PUBLIC "-//W3C//DTD SVG 1.1//EN" "http://www.w3.org/Graphics/SVG/1.1/DTD/svg11.dtd">
<svg version="1.1" id="Layer_1" xmlns="http://www.w3.org/2000/svg" xmlns:xlink="http://www.w3.org/1999/xlink" x="0px" y="0px"
	 viewBox="0 0 285.333 257.334" enable-background="new 0 0 285.333 257.334"
	 xml:space="preserve">
<g>
	<path fill-rule="evenodd" clip-rule="evenodd" fill="#ED1C24" d="M77.785,103.246l17.446,0.008l2.214,3.463l1.696-0.362
		l0.727-0.155l0.412,0.615l0.186,2.745l0.121,0.247l1.82,5.635l1.935-44.935l2.183-0.003l1.867,34.644l2.978-3.875l0.473-0.616
		l0.738,0.245l1.716,0.569l2.407-1.513l0.731-2.406l2.089-0.017l1.231,3.856h15.563l0.754,0.307l4.227,4.024l0.125,6.486
		l1.708-28.098l2.178-0.042l1.913,17.134h1.568l1.148-1.927l0.91-1.527l0.955,1.502l1.416,2.225h5.912l3.254-3.238l1.156-1.15
		l0.627,1.504l1.094,2.61h2.113h0.566l0.328,0.468l4.686,6.662l0.195,6.082l1.748-28.173l2.184,0.013l1.195,16.396l1.059-1.383
		l0.309-0.401l0.51-0.025l1.068-0.05l0.107-0.536l0.422-2.089l1.453,1.565l2.746,2.953l1.969-1.373l0.482-0.335l0.541,0.212
		l2.83,1.052h8.629v2.238h-8.832l-0.398-0.076l-2.482-0.974l-2.27,1.579l-0.777,0.543l-0.648-0.696l-1.934-2.083l-0.023,0.112
		l-0.855,0.04l-1.414,0.067l-1.16,1.514l-0.33,0.43h-0.539h-1.471h-1.016l-0.074-1.014l-0.27-8.911l-1.527,23.243l-2.174,0.051
		l-1.195-8.946l-4.203-5.975h-2.275h-0.727l-0.283-0.673l-0.746-1.781l-2.42,2.408l-0.318,0.319h-0.455h-6.963h-0.602l-0.324-0.511
		l-0.785-1.233l-0.557,0.934l-0.318,0.537h-0.623h-3.17h-0.979l-0.108-0.971l-0.718-10.349c-0.512,6.878-0.911,16.781-2.034,23.561
		h-2.17l-0.756-8.632l-3.593-3.419h-15.928h-0.796l-0.245-0.762l-0.482-1.515l-0.219,0.284l-3.19,2.005l-0.435,0.273l-0.49-0.163
		l-1.467-0.487l-4.306,5.604l-1.961-0.604l-0.873-20.141l-1.356,32.028l-2.123,0.306l-3.439-9.732l-0.271-2.026l-2.16,0.58
		l-1.89-2.95h-16.47V103.246z M85.75,99.932h0.046c-5.09-8.941-7.999-19.284-7.999-30.307c0-33.89,27.484-61.375,61.376-61.375
		c33.889,0,61.375,27.484,61.375,61.375c0,11.022-2.91,21.365-7.998,30.307h0.043l-0.424,0.656
		c-0.936,1.597-1.938,3.148-3.008,4.648l-50.1,77.418l-50.045-77.653c-0.999-1.415-1.939-2.875-2.818-4.374L85.75,99.932z"/>
	<path fill="#FFFFFF" d="M104.067,50.892c0.765-8.821,5.235-14.543,14.041-16.378c3.471-0.723,7.157-0.527,10.654,0.872
		c3.799,1.521,7.357,4.455,10.141,9.162c2.588-4.451,6.459-7.451,10.701-8.936c3.117-1.092,6.443-1.363,9.607-0.79
		c3.184,0.578,6.205,2.006,8.693,4.306c3.68,3.4,6.418,8.384,6.359,15.926v0.082c-0.432,11.702-7.166,19.015-13.496,25.544h-0.145
		c4.723-5.982,10.805-15.428,11.027-25.628c-0.154-6.419-2.336-11.059-5.518-13.999c-2.117-1.957-4.682-3.171-7.383-3.661
		c-2.723-0.493-5.588-0.258-8.287,0.688c-4.288,1.501-8.148,4.802-10.33,9.82l-1.137,2.614l-1.24-2.568
		c-2.605-5.4-6.16-8.609-9.967-10.133C117.043,33.512,107.139,40.318,104.067,50.892z"/>
</g>
<path fill-rule="evenodd" clip-rule="evenodd" d="M278.83,211.148h-30.923v37.029h-7.812v-37.227
	c0.035-4.12,3.315-7.471,7.409-7.617h31.325V211.148z M276.795,229.336H251.19v-7.814h25.605V229.336z M188.298,248.178h-7.814
	v-44.844h7.814V248.178z M173.393,248.178h-38.67v-44.844h7.813v37.031h30.856V248.178z M128.027,248.178H96.502v-0.012
	c-3.85-0.235-6.934-3.303-7.195-7.148h-0.017v-30.081c0.034-4.028,3.168-7.319,7.132-7.603h31.604v7.814H97.104v29.217h30.923
	V248.178z M125.992,229.336h-25.604v-7.814h25.604V229.336z M82.068,248.178H70.513l-12.539-12.605H43.07l-7.878-7.747h26.917
	c2.889,0,5.329-0.62,7.288-1.904c2.241-1.472,3.348-3.612,3.348-6.37c0-5.602-3.545-8.402-10.636-8.402H40.36h-3.856h-7.813v-7.814
	h32.172c5.776,0,10.439,1.249,13.983,3.743c4.071,2.845,6.106,7.026,6.106,12.54c0,3.765-1.183,7.002-3.546,9.719
	c-2.189,2.538-5.165,4.309-8.928,5.316L82.068,248.178z M11.095,211.148v-7.814h7.813v7.814H11.095z M232.849,248.178h-31.524
	v-0.012c-3.85-0.235-6.937-3.303-7.194-7.148l-0.016-30.081c0.032-4.028,3.165-7.319,7.13-7.603h31.604v7.813h-30.924v29.218h30.924
	V248.178z M230.815,229.336h-25.609v-7.814h25.609V229.336z M18.909,248.178h-7.813v-31.391h7.813V248.178z"/>
</svg>
